<svg width="20" height="20" viewBox="0 0 20 20" fill="none" xmlns="http://www.w3.org/2000/svg">
<path d="M19.5376 12.63L17.4276 10.975C17.4676 10.655 17.4976 10.33 17.4976 9.99998C17.4976 9.66998 17.4676 9.34499 17.4276 9.02498L19.5426 7.36996C19.7326 7.21996 19.7876 6.94996 19.6626 6.72998L17.6626 3.26498C17.5376 3.04997 17.2776 2.95997 17.0526 3.04997L14.5626 4.05497C14.0476 3.65995 13.4826 3.32498 12.8726 3.06998L12.4976 0.42C12.4526 0.185015 12.2476 0 11.9976 0H7.99765C7.74767 0 7.54264 0.185015 7.50265 0.42L7.12765 3.06998C6.51767 3.32498 5.95264 3.65498 5.43767 4.05497L2.94768 3.04997C2.72268 2.96498 2.46266 3.04997 2.33769 3.26498L0.337633 6.72998C0.212618 6.94499 0.267649 7.21499 0.457633 7.36996L2.56761 9.02498C2.52763 9.34499 2.49763 9.66998 2.49763 9.99998C2.49763 10.33 2.52763 10.655 2.56761 10.975L0.457633 12.63C0.267649 12.78 0.212618 13.05 0.337633 13.27L2.33765 16.735C2.46266 16.95 2.72263 17.04 2.94763 16.95L5.43763 15.945C5.95264 16.34 6.51762 16.675 7.12761 16.93L7.50261 19.58C7.54259 19.8149 7.74762 20 7.99761 20H11.9976C12.2476 20 12.4526 19.8149 12.4926 19.58L12.8676 16.93C13.4776 16.675 14.0426 16.345 14.5576 15.945L17.0476 16.95C17.2726 17.035 17.5326 16.95 17.6575 16.735L19.6576 13.27C19.7826 13.055 19.7276 12.785 19.5376 12.63ZM9.99762 13.5C8.06262 13.5 6.49761 11.935 6.49761 9.99998C6.49761 8.06498 8.06262 6.50001 9.99762 6.50001C11.9326 6.50001 13.4976 8.06503 13.4976 10C13.4976 11.935 11.9326 13.5 9.99762 13.5Z" fill="#4A5056"/>
</svg>
