<svg id="bold" enable-background="new 0 0 24 24" height="512" viewBox="0 0 24 24" width="512" xmlns="http://www.w3.org/2000/svg"><path d="m13 10.5c-.276 0-.5.224-.5.5v1h1v-1c0-.276-.224-.5-.5-.5z"  fill="#4A5056"/><path d="m18.5 10.5v3c.827 0 1.5-.673 1.5-1.5s-.673-1.5-1.5-1.5z"  fill="#4A5056"/><path d="m22.25 6h-12.5c-.965 0-1.75.785-1.75 1.75v8.5c0 .965.785 1.75 1.75 1.75h12.5c.965 0 1.75-.785 1.75-1.75v-8.5c0-.965-.785-1.75-1.75-1.75zm-7.25 8.25c0 .414-.336.75-.75.75s-.75-.336-.75-.75v-.75h-1v.75c0 .414-.336.75-.75.75s-.75-.336-.75-.75v-3.25c0-1.103.897-2 2-2s2 .897 2 2zm3.5.75h-.75c-.414 0-.75-.336-.75-.75v-4.5c0-.414.336-.75.75-.75h.75c1.654 0 3 1.346 3 3s-1.346 3-3 3z"  fill="#4A5056"/><path d="m.75 8h4.5c.414 0 .75-.336.75-.75s-.336-.75-.75-.75h-4.5c-.414 0-.75.336-.75.75s.336.75.75.75z"  fill="#4A5056"/><path d="m.75 11h4.5c.414 0 .75-.336.75-.75s-.336-.75-.75-.75h-4.5c-.414 0-.75.336-.75.75s.336.75.75.75z"  fill="#4A5056"/><path d="m.75 14.5h4.5c.414 0 .75-.336.75-.75s-.336-.75-.75-.75h-4.5c-.414 0-.75.336-.75.75s.336.75.75.75z"  fill="#4A5056"/><path d="m.75 17.5h4.5c.414 0 .75-.336.75-.75s-.336-.75-.75-.75h-4.5c-.414 0-.75.336-.75.75s.336.75.75.75z"  fill="#4A5056"/><path d="m.75 1.5h22.5c.414 0 .75-.336.75-.75s-.336-.75-.75-.75h-22.5c-.414 0-.75.336-.75.75s.336.75.75.75z"  fill="#4A5056"/><path d="m.75 4.5h22.5c.414 0 .75-.336.75-.75s-.336-.75-.75-.75h-22.5c-.414 0-.75.336-.75.75s.336.75.75.75z"  fill="#4A5056"/><path d="m.75 21h22.5c.414 0 .75-.336.75-.75s-.336-.75-.75-.75h-22.5c-.414 0-.75.336-.75.75s.336.75.75.75z"  fill="#4A5056"/><path d="m.75 24h22.5c.414 0 .75-.336.75-.75s-.336-.75-.75-.75h-22.5c-.414 0-.75.336-.75.75s.336.75.75.75z"  fill="#4A5056"/></svg>