<svg width="20" height="20" viewBox="0 0 20 20" fill="none" xmlns="http://www.w3.org/2000/svg">
<g clip-path="url(#clip0)">
<path d="M8.46157 0H0.769234C0.344385 0 0 0.344385 0 0.769234V8.46157C0 8.88642 0.344385 9.2308 0.769234 9.2308H8.46157C8.88642 9.2308 9.2308 8.88642 9.2308 8.46157V0.769234C9.2308 0.344385 8.88642 0 8.46157 0Z" fill="#4A5056"/>
<path d="M19.2307 0H11.5384C11.1135 0 10.7692 0.344385 10.7692 0.769234V8.46157C10.7692 8.88642 11.1135 9.2308 11.5384 9.2308H19.2307C19.6556 9.2308 20 8.88642 20 8.46157V0.769234C20 0.344385 19.6556 0 19.2307 0Z" fill="#4A5056"/>
<path d="M8.46157 10.7693H0.769234C0.344385 10.7693 0 11.1137 0 11.5385V19.2309C0 19.6557 0.344385 20.0001 0.769234 20.0001H8.46157C8.88642 20.0001 9.2308 19.6557 9.2308 19.2309V11.5385C9.2308 11.1137 8.88642 10.7693 8.46157 10.7693Z" fill="#4A5056"/>
<path d="M19.2307 10.7693H11.5384C11.1135 10.7693 10.7692 11.1137 10.7692 11.5385V19.2309C10.7692 19.6557 11.1135 20.0001 11.5384 20.0001H19.2307C19.6556 20.0001 20 19.6557 20 19.2309V11.5385C20 11.1137 19.6556 10.7693 19.2307 10.7693Z" fill="#4A5056"/>
</g>
<defs>
<clipPath id="clip0">
<rect width="20" height="20" fill="white"/>
</clipPath>
</defs>
</svg>
