<svg width="20" height="20" viewBox="0 0 20 20" fill="none" xmlns="http://www.w3.org/2000/svg">
<path d="M15.8984 1.79688H4.10156C1.8399 1.79688 0 3.63678 0 5.89844V12.2333C0 14.0379 1.18484 15.6097 2.90176 16.1128L4.88266 18.0939C4.99268 18.2037 5.1416 18.2655 5.29709 18.2655C5.45242 18.2655 5.6015 18.2037 5.71136 18.0939L7.52853 16.2766H15.8984C18.1601 16.2766 20 14.4366 20 12.175V5.89844C20 3.63678 18.1601 1.79688 15.8984 1.79688ZM5.69366 10.0723C5.69366 9.74869 5.95596 9.48639 6.2796 9.48639H13.7204C14.044 9.48639 14.3063 9.74869 14.3063 10.0723C14.3063 10.396 14.044 10.6583 13.7204 10.6583H6.2796C5.95596 10.6583 5.69366 10.396 5.69366 10.0723ZM13.7204 8.58704H6.2796C5.95596 8.58704 5.69366 8.32474 5.69366 8.0011C5.69366 7.67761 5.95596 7.41516 6.2796 7.41516H13.7204C14.044 7.41516 14.3063 7.67761 14.3063 8.0011C14.3063 8.32474 14.044 8.58704 13.7204 8.58704Z" fill="#4A5056"/>
</svg>
