<svg width="20" height="20" viewBox="0 0 20 20" fill="none" xmlns="http://www.w3.org/2000/svg">
<path d="M17.1129 10.6766H15.5662C15.7238 11.1083 15.81 11.5741 15.81 12.0596V17.9053C15.81 18.1077 15.7747 18.302 15.7106 18.4827H18.2677C19.2229 18.4827 20 17.7056 20 16.7505V13.5637C20 11.9718 18.7048 10.6766 17.1129 10.6766Z" fill="#4A5056"/>
<path d="M4.19005 12.0596C4.19005 11.5741 4.27618 11.1083 4.43384 10.6766H2.88712C1.29516 10.6766 0 11.9718 0 13.5637V16.7505C0 17.7057 0.777072 18.4828 1.73227 18.4828H4.28938C4.22528 18.302 4.19005 18.1077 4.19005 17.9053V12.0596Z" fill="#4A5056"/>
<path d="M11.768 9.17249H8.23196C6.64001 9.17249 5.34485 10.4676 5.34485 12.0596V17.9053C5.34485 18.2242 5.60336 18.4827 5.92227 18.4827H14.0777C14.3966 18.4827 14.6551 18.2242 14.6551 17.9053V12.0596C14.6551 10.4676 13.3599 9.17249 11.768 9.17249Z" fill="#4A5056"/>
<path d="M10.0001 1.51721C8.08554 1.51721 6.52795 3.07479 6.52795 4.98937C6.52795 6.288 7.24471 7.42218 8.30323 8.01765C8.8053 8.30008 9.38413 8.46148 10.0001 8.46148C10.616 8.46148 11.1948 8.30008 11.6969 8.01765C12.7555 7.42218 13.4722 6.28796 13.4722 4.98937C13.4722 3.07483 11.9146 1.51721 10.0001 1.51721Z" fill="#4A5056"/>
<path d="M3.90308 4.75342C2.47124 4.75342 1.3064 5.91826 1.3064 7.3501C1.3064 8.78194 2.47124 9.94679 3.90308 9.94679C4.26628 9.94679 4.61214 9.87155 4.92632 9.73632C5.46952 9.50245 5.91741 9.08847 6.19456 8.56991C6.38909 8.20596 6.49976 7.79077 6.49976 7.3501C6.49976 5.9183 5.33491 4.75342 3.90308 4.75342Z" fill="#4A5056"/>
<path d="M16.0969 4.75342C14.6651 4.75342 13.5002 5.91826 13.5002 7.3501C13.5002 7.79081 13.6109 8.206 13.8054 8.56991C14.0826 9.08851 14.5305 9.50249 15.0737 9.73632C15.3879 9.87155 15.7337 9.94679 16.0969 9.94679C17.5288 9.94679 18.6936 8.78194 18.6936 7.3501C18.6936 5.91826 17.5288 4.75342 16.0969 4.75342Z" fill="#4A5056"/>
</svg>
