<svg width="20" height="20" viewBox="0 0 20 20" fill="none" xmlns="http://www.w3.org/2000/svg">
<g clip-path="url(#clip0)">
<path d="M0.000119756 8.69463C-0.00858047 9.4507 0.457484 10.1311 1.16559 10.3963V7.15621C1.16559 7.10958 1.18888 7.03967 1.18888 6.99304C0.476 7.25601 0.0018598 7.93472 0.000119756 8.69463Z" fill="#4A5056"/>
<path d="M6.36367 12.7039H3.31006L4.45224 16.853C4.62139 17.4862 5.19542 17.9263 5.85084 17.9253C6.31718 17.9308 6.75839 17.7145 7.03965 17.3426C7.32364 16.9887 7.41122 16.5159 7.27273 16.0838L6.36367 12.7039Z" fill="#4A5056"/>
<path d="M1.18896 6.9697H1.21225V6.94641C1.21225 6.9697 1.21225 6.9697 1.18896 6.9697Z" fill="#4A5056"/>
<path d="M17.9021 6.64331H17.7156V10.8391H17.9021C19.0607 10.8391 19.9999 9.89983 19.9999 8.74123C19.9999 7.58258 19.0607 6.64331 17.9021 6.64331Z" fill="#4A5056"/>
<path d="M1.86487 7.15616V10.4662C1.89008 11.3233 2.59243 12.005 3.44992 12.0046H7.69233V5.71094H3.44992C2.61077 5.71094 1.86487 6.31701 1.86487 7.15616Z" fill="#4A5056"/>
<path d="M8.3916 12.0978L17.0162 15.5477V2.07458L8.3916 5.52448V12.0978Z" fill="#4A5056"/>
</g>
<defs>
<clipPath id="clip0">
<rect width="20" height="20" fill="white"/>
</clipPath>
</defs>
</svg>
