<svg width="20" height="23" viewBox="0 0 20 23" fill="none" xmlns="http://www.w3.org/2000/svg">
<path d="M14.2043 9.58203C14.2043 9.10093 13.814 8.71094 13.3325 8.71094H4.35378C3.87233 8.71094 3.48206 9.10093 3.48206 9.58203C3.48206 10.0631 3.87233 10.4531 4.35378 10.4531H13.3325C13.814 10.4531 14.2043 10.0631 14.2043 9.58203Z" fill="#4A5056"/>
<path d="M4.35378 12.1953C3.87233 12.1953 3.48206 12.5853 3.48206 13.0664C3.48206 13.5475 3.87233 13.9375 4.35378 13.9375H9.8069C10.2884 13.9375 10.6786 13.5475 10.6786 13.0664C10.6786 12.5853 10.2884 12.1953 9.8069 12.1953H4.35378Z" fill="#4A5056"/>
<path d="M6.40234 20.5578H3.4869C2.52556 20.5578 1.74345 19.7763 1.74345 18.8156V3.48438C1.74345 2.52373 2.52556 1.74219 3.4869 1.74219H14.2043C15.1656 1.74219 15.9477 2.52373 15.9477 3.48438V8.8416C15.9477 9.32271 16.338 9.7127 16.8195 9.7127C17.3009 9.7127 17.6912 9.32271 17.6912 8.8416V3.48438C17.6912 1.56309 16.127 0 14.2043 0H3.4869C1.56422 0 0 1.56309 0 3.48438V18.8156C0 20.7369 1.56422 22.3 3.4869 22.3H6.40234C6.88379 22.3 7.27407 21.91 7.27407 21.4289C7.27407 20.9478 6.88379 20.5578 6.40234 20.5578Z" fill="#4A5056"/>
<path d="M19.2352 12.6122C18.2156 11.5933 16.5565 11.5932 15.5375 12.6115L10.7516 17.3833C10.65 17.4847 10.575 17.6095 10.5332 17.7468L9.49097 21.1757C9.39856 21.4797 9.47907 21.8098 9.70109 22.0372C9.86742 22.2075 10.0934 22.3 10.3251 22.3C10.4027 22.3 10.4809 22.2896 10.5578 22.2683L14.0763 21.2944C14.2211 21.2543 14.3531 21.1775 14.4594 21.0714L19.2353 16.308C20.2549 15.2891 20.2549 13.6312 19.2352 12.6122ZM13.39 19.6766L11.6198 20.1666L12.1379 18.4623L15.3671 15.2425L16.6002 16.4747L13.39 19.6766ZM18.0031 15.0756L17.8342 15.244L16.6014 14.012L16.7697 13.8442C17.1096 13.5045 17.6626 13.5045 18.0025 13.8442C18.3424 14.1838 18.3424 14.7364 18.0031 15.0756Z" fill="#4A5056"/>
<path d="M13.3325 5.22656H4.35378C3.87233 5.22656 3.48206 5.61655 3.48206 6.09766C3.48206 6.57876 3.87233 6.96875 4.35378 6.96875H13.3325C13.814 6.96875 14.2043 6.57876 14.2043 6.09766C14.2043 5.61655 13.814 5.22656 13.3325 5.22656Z" fill="#4A5056"/>
</svg>
