<svg width="20" height="20" viewBox="0 0 20 20" fill="none" xmlns="http://www.w3.org/2000/svg">
<path d="M16.2745 5.97649H9.05882L7.62353 4.27061C7.57525 4.21257 7.50289 4.18002 7.42745 4.18237H1.60588C0.717059 4.18884 0 4.91119 0 5.80002V16.2922C0.00107843 17.184 0.723823 17.9068 1.61569 17.9079H16.2745C17.1664 17.9068 17.8891 17.184 17.8902 16.2922V7.59217C17.8891 6.70031 17.1664 5.97757 16.2745 5.97649Z" fill="#4A5056"/>
<path d="M18.3941 3.88628H11.1764L9.74115 2.1804C9.69287 2.12236 9.62052 2.08981 9.54508 2.09216H3.72548C2.91901 2.09348 2.23705 2.68927 2.12744 3.48824H7.43528C7.71361 3.48755 7.97787 3.6104 8.15684 3.82353L9.38233 5.2804H16.2745C17.5492 5.28255 18.5821 6.31544 18.5843 7.5902V15.802C19.3925 15.7011 19.9993 15.0145 20 14.2V5.5C19.9979 4.6127 19.2813 3.89275 18.3941 3.88628Z" fill="#4A5056"/>
</svg>
