<svg width="20" height="20" viewBox="0 0 20 20" fill="none" xmlns="http://www.w3.org/2000/svg">
<g clip-path="url(#clip0)">
<path d="M1.45833 19.1667H3.54167C4.34583 19.1667 5 18.5125 5 17.7084V8.12502C5 7.32085 4.34583 6.66669 3.54167 6.66669H1.45833C0.654167 6.66669 0 7.32085 0 8.12502V17.7084C0 18.5125 0.654167 19.1667 1.45833 19.1667Z" fill="#4A5056"/>
<path d="M10.6508 0.625C9.8175 0.625 9.40083 1.04167 9.40083 3.125C9.40083 5.105 7.48333 6.69833 6.25 7.51917V17.8425C7.58417 18.46 10.255 19.375 14.4008 19.375H15.7342C17.3592 19.375 18.7425 18.2083 19.0175 16.6083L19.9508 11.1917C20.3008 9.15 18.7342 7.29167 16.6675 7.29167H12.7342C12.7342 7.29167 13.3592 6.04167 13.3592 3.95833C13.3592 1.45833 11.4842 0.625 10.6508 0.625Z" fill="#4A5056"/>
</g>
<defs>
<clipPath id="clip0">
<rect width="20" height="20" fill="white"/>
</clipPath>
</defs>
</svg>
