<svg width="20" height="15" viewBox="0 0 20 15" fill="none" xmlns="http://www.w3.org/2000/svg">
<path d="M11.4372 8.77129C10.6447 9.56207 9.36029 9.56207 8.56781 8.77129C7.77557 7.98052 7.77557 6.69831 8.56781 5.90753C9.36029 5.11676 10.6447 5.11676 11.4372 5.90753C12.2294 6.69831 12.2294 7.98052 11.4372 8.77129Z" fill="#4A5056"/>
<path d="M14.2088 11.8396C13.9616 11.8396 13.7144 11.7453 13.5262 11.5564C13.1499 11.1795 13.1506 10.5689 13.5275 10.1927C14.2912 9.43047 14.7117 8.41714 14.7117 7.33945C14.7117 6.26176 14.2912 5.24843 13.5275 4.48618C13.1506 4.1098 13.1499 3.49941 13.5262 3.12231C13.9024 2.74545 14.513 2.74471 14.8899 3.12109C16.0187 4.24777 16.6404 5.74571 16.6404 7.33945C16.6404 8.93295 16.0187 10.4311 14.8899 11.5578C14.7017 11.7458 14.4552 11.8396 14.2088 11.8396Z" fill="#4A5056"/>
<path d="M16.3899 14.6788C16.1428 14.6788 15.8956 14.5844 15.7074 14.3958C15.331 14.0187 15.3317 13.4083 15.7086 13.0319C17.2321 11.5113 18.0714 9.48974 18.0714 7.33948C18.0714 5.18922 17.2321 3.16767 15.7086 1.64706C15.3317 1.27069 15.331 0.660301 15.7074 0.283195C16.0838 -0.0936662 16.6942 -0.0943976 17.071 0.281977C18.9597 2.16702 20.0001 4.67341 19.9999 7.33948C19.9999 10.0055 18.9597 12.5122 17.071 14.3972C16.8828 14.5849 16.6364 14.6788 16.3899 14.6788Z" fill="#4A5056"/>
<path d="M5.79143 11.8397C5.54498 11.8397 5.29853 11.7459 5.1101 11.5579C3.98122 10.4312 3.35962 8.93304 3.35962 7.33954C3.35962 5.7458 3.98122 4.24786 5.1101 3.12118C5.48697 2.74481 6.0976 2.74529 6.47373 3.1224C6.8501 3.49926 6.84937 4.10989 6.47251 4.48627C5.70879 5.24852 5.2883 6.26186 5.2883 7.33954C5.2883 8.41723 5.70879 9.43057 6.47251 10.1928C6.84937 10.569 6.8501 11.1796 6.47373 11.5564C6.28554 11.7451 6.03836 11.8397 5.79143 11.8397Z" fill="#4A5056"/>
<path d="M3.61017 14.6788C3.36348 14.6788 3.11703 14.5849 2.92885 14.397C1.04015 12.5119 0 10.0055 0 7.33948C0 4.67317 1.04015 2.16677 2.92885 0.281733C3.30571 -0.0943978 3.91634 -0.0939102 4.29247 0.283195C4.66885 0.660057 4.66812 1.27045 4.29125 1.64682C2.76772 3.16743 1.92843 5.18898 1.92843 7.33923C1.92843 9.48949 2.76772 11.5113 4.29125 13.0319C4.66812 13.4083 4.66885 14.0187 4.29247 14.3958C4.10429 14.5844 3.85711 14.6788 3.61017 14.6788Z" fill="#4A5056"/>
</svg>
