<svg id="Solid" height="512" viewBox="0 0 512 512" width="512" xmlns="http://www.w3.org/2000/svg"><path d="m328.635 258.22a8.049 8.049 0 0 1 -.9-.662l-59.163-50.358a8 8 0 0 1 -1.933-9.74 47.859 47.859 0 0 0 -8.785-55.826 48.364 48.364 0 0 0 -46.354-12.413l12.411 12.41a24 24 0 0 1 -33.941 33.941l-12.41-12.411a48.353 48.353 0 0 0 12.41 46.352 47.857 47.857 0 0 0 55.83 8.787 8 8 0 0 1 9.74 1.933l50.36 59.167a8.057 8.057 0 0 1 .663.9 16 16 0 1 0 22.074-22.074z" fill="#4A5056"/><path d="m336 72v-40h-216a40.045 40.045 0 0 0 -40 40v280h352v-224h-40a56.063 56.063 0 0 1 -56-56zm6.706 222.366a32 32 0 0 1 -45.255 0 32.122 32.122 0 0 1 -4.073-4.994l-46.131-54.2a64.009 64.009 0 0 1 -79.633-90.048 8 8 0 0 1 12.694-1.85l20.978 20.979a8 8 0 0 0 11.314-11.308l-20.98-20.978a8 8 0 0 1 1.85-12.694 64.381 64.381 0 0 1 75.7 11.043 63.8 63.8 0 0 1 14.35 68.589l54.2 46.131a32.226 32.226 0 0 1 4.994 4.073 32 32 0 0 1 0 45.256z" fill="#4A5056"/><path d="m80 440a40.045 40.045 0 0 0 40 40h272a40.045 40.045 0 0 0 40-40v-72h-352zm248-56a26.587 26.587 0 0 1 11.412 2.585 8 8 0 0 1 -6.824 14.473 10.675 10.675 0 0 0 -4.588-1.058c-8.673 0-16 10.99-16 24s7.327 24 16 24c6.813 0 12.8-6.783 15.049-16h-7.049a8 8 0 0 1 0-16h16a8 8 0 0 1 8 8c0 22.056-14.355 40-32 40s-32-17.944-32-40 14.355-40 32-40zm-80 0c17.645 0 32 17.944 32 40s-14.355 40-32 40-32-17.944-32-40 14.355-40 32-40zm-96 8a8 8 0 0 1 16 0v56h24a8 8 0 0 1 0 16h-32a8 8 0 0 1 -8-8z" fill="#4A5056"/><ellipse cx="248" cy="424" rx="16" ry="24"/><path d="m392 112h28.687l-68.687-68.687v28.687a40.045 40.045 0 0 0 40 40z" fill="#4A5056"/></svg>