<svg width="26" height="21" viewBox="0 0 26 21" fill="none" xmlns="http://www.w3.org/2000/svg">
<path d="M24.977 6.60217C24.981 6.68803 24.9757 6.77542 24.9578 6.86222L23.354 14.5622C23.2732 14.9501 22.9835 15.2229 22.6505 15.225L13.0281 15.2833C13.0268 15.2833 13.0257 15.2833 13.0244 15.2833H3.40187C3.06713 15.2833 2.77544 15.0096 2.69457 14.6197L1.09083 6.89057C1.07237 6.80143 1.06702 6.7116 1.07169 6.62352C0.451282 6.3889 0 5.69205 0 4.87083C0 3.85758 0.686692 3.03333 1.53084 3.03333C2.37499 3.03333 3.06168 3.85758 3.06168 4.87083C3.06168 5.44145 2.84387 5.95198 2.5028 6.28927L4.51068 8.71757C5.01815 9.33135 5.72233 9.68322 6.44275 9.68322C7.29458 9.68322 8.10675 9.19765 8.6182 8.38413L11.918 3.136C11.6408 2.8035 11.4692 2.34407 11.4692 1.8375C11.4692 0.82425 12.1559 0 13 0C13.8441 0 14.5308 0.82425 14.5308 1.8375C14.5308 2.3289 14.3683 2.77492 14.1056 3.10497C14.1065 3.10637 14.1076 3.10753 14.1084 3.10905L17.3843 8.37165C17.8956 9.19298 18.7107 9.68333 19.5649 9.68333C20.292 9.68333 20.9756 9.34348 21.4897 8.72632L23.5102 6.30105C23.162 5.96388 22.9383 5.44845 22.9383 4.87083C22.9383 3.85758 23.625 3.03333 24.4692 3.03333C25.3133 3.03333 26 3.85758 26 4.87083C26 5.67012 25.5719 6.34993 24.977 6.60217ZM23.1975 18.025C23.1975 17.5418 22.8712 17.15 22.4686 17.15H3.61249C3.20991 17.15 2.88352 17.5418 2.88352 18.025V20.125C2.88352 20.6082 3.20991 21 3.61249 21H22.4686C22.8712 21 23.1975 20.6082 23.1975 20.125V18.025Z" fill="#EA3F79"/>
</svg>
