<svg width="486" height="486" viewBox="0 0 486 486" fill="none" xmlns="http://www.w3.org/2000/svg">
<path d="M243 0C108.8 0 0 108.8 0 243C0 377.2 108.8 486 243 486C377.2 486 486 377.2 486 243C486 108.8 377.2 0 243 0ZM312.8 338.8C302.2 351.7 288.4 360.4 272.3 364.8C265.3 366.7 262.1 370.4 262.5 377.7C262.8 384.9 262.5 392 262.4 399.2C262.4 405.6 259.1 409 252.8 409.2C248.7 409.3 244.6 409.4 240.5 409.4C236.9 409.4 233.3 409.4 229.7 409.3C222.9 409.2 219.7 405.3 219.7 398.7C219.6 393.5 219.6 388.2 219.6 383C219.5 371.4 219.1 371 208 369.2C193.8 366.9 179.8 363.7 166.8 357.4C156.6 352.4 155.5 349.9 158.4 339.1C160.6 331.1 162.8 323.1 165.3 315.2C167.1 309.4 168.8 306.8 171.9 306.8C173.7 306.8 176 307.7 179.1 309.3C193.5 316.8 208.8 321 224.9 323C227.6 323.3 230.3 323.5 233 323.5C240.5 323.5 247.8 322.1 254.9 319C272.8 311.2 275.6 290.5 260.5 278.1C255.4 273.9 249.5 270.8 243.4 268.1C227.7 261.2 211.4 256 196.6 247.1C172.6 232.7 157.4 213 159.2 183.8C161.2 150.8 179.9 130.2 210.2 119.2C222.7 114.7 222.8 114.8 222.8 101.8C222.8 97.4 222.7 93 222.9 88.5C223.2 78.7 224.8 77 234.6 76.7C235.7 76.7 236.9 76.7 238 76.7C239.9 76.7 241.8 76.7 243.7 76.7C244.5 76.7 245.3 76.7 246 76.7C264.6 76.7 264.6 77.5 264.7 97.6C264.8 112.4 264.8 112.4 279.5 114.7C290.8 116.5 301.5 119.8 311.9 124.4C317.6 126.9 319.8 130.9 318 137C315.4 146 312.9 155.1 310.1 164C308.3 169.4 306.6 171.9 303.4 171.9C301.6 171.9 299.4 171.2 296.6 169.8C282.2 162.8 267.1 159.4 251.3 159.4C249.3 159.4 247.2 159.5 245.2 159.6C240.5 159.9 235.9 160.5 231.5 162.4C215.9 169.2 213.4 186.4 226.7 197C233.4 202.4 241.1 206.2 249 209.5C262.8 215.2 276.6 220.7 289.7 227.9C330.9 250.9 342.1 303.2 312.8 338.8Z" fill="#4A5056"/>
</svg>
