<svg width="20" height="20" viewBox="0 0 20 20" fill="none" xmlns="http://www.w3.org/2000/svg">
<path d="M15.6273 17.2763H12.3948H11.5243H11.3363V12.9403H12.7544C13.114 12.9403 13.3265 12.5317 13.114 12.2374L10.3555 8.42053C10.1798 8.17533 9.8161 8.17533 9.64038 8.42053L6.8819 12.2374C6.66939 12.5317 6.87781 12.9403 7.24152 12.9403H8.65958V17.2763H8.4716H7.60114H3.8537C1.70821 17.1578 0 15.1512 0 12.9771C0 11.4773 0.813241 10.1696 2.0188 9.46262C1.90846 9.16429 1.85125 8.84554 1.85125 8.51043C1.85125 6.97794 3.0895 5.73969 4.62199 5.73969C4.953 5.73969 5.27176 5.79691 5.57009 5.90724C6.45689 4.02739 8.36943 2.72375 10.5926 2.72375C13.4696 2.72784 15.8398 4.93054 16.1095 7.73806C18.3204 8.11812 20 10.1655 20 12.4826C20 14.9591 18.0711 17.1046 15.6273 17.2763Z" fill="#4A5056"/>
</svg>
