<svg id="Capa_1" enable-background="new 0 0 512 512" height="512" viewBox="0 0 512 512" width="512" xmlns="http://www.w3.org/2000/svg"><g><circle cx="90" cy="332" r="60"  fill="#4A5056"/><path d="m135 392h-90c-24.814 0-45 20.186-45 45v75h180v-75c0-24.814-20.186-45-45-45z"  fill="#4A5056"/><circle cx="422" cy="332" r="60"  fill="#4A5056"/><path d="m467 392h-90c-24.814 0-45 20.186-45 45v75h180v-75c0-24.814-20.186-45-45-45z"  fill="#4A5056"/><circle cx="256" cy="60" r="60"  fill="#4A5056"/><path d="m346 165c0-24.814-20.186-45-45-45h-90c-24.814 0-45 20.186-45 45v77h180z"  fill="#4A5056"/><path d="m271 272h-30v73.843l-40.942 23.628 15 25.986 40.942-23.643 40.942 23.643 15-25.986-40.942-23.628z" fill="#4A5056"/></g></svg>