<svg width="20" height="20" viewBox="0 0 20 20" fill="none" xmlns="http://www.w3.org/2000/svg">
<path d="M18.9789 5.31355C18.7628 4.51029 18.1295 3.87709 17.3264 3.6608C15.8591 3.25934 9.99 3.25934 9.99 3.25934C9.99 3.25934 4.12113 3.25934 2.65388 3.64558C1.86619 3.86164 1.21742 4.5104 1.00136 5.31355C0.615234 6.78068 0.615234 9.82331 0.615234 9.82331C0.615234 9.82331 0.615234 12.8813 1.00136 14.3331C1.21765 15.1362 1.85074 15.7694 2.654 15.9857C4.13658 16.3873 9.99023 16.3873 9.99023 16.3873C9.99023 16.3873 15.8591 16.3873 17.3264 16.0011C18.1296 15.7849 18.7628 15.1517 18.9791 14.3485C19.3651 12.8813 19.3651 9.83876 19.3651 9.83876C19.3651 9.83876 19.3806 6.78068 18.9789 5.31355ZM8.12141 12.6342V7.01242L13.0019 9.82331L8.12141 12.6342Z" fill="#4A5056"/>
</svg>
